<!DOCTYPE svg PUBLIC "-//W3C//DTD SVG 1.1//EN" "http://www.w3.org/Graphics/SVG/1.1/DTD/svg11.dtd">
<!-- Uploaded to: SVG Repo, www.svgrepo.com, Transformed by: SVG Repo Mixer Tools -->
<svg fill="#000000" width="256px" height="256px" viewBox="0 0 24 24" id="folder-code" data-name="Line Color" xmlns="http://www.w3.org/2000/svg" class="icon line-color">
<g id="SVGRepo_bgCarrier" stroke-width="0"/>
<g id="SVGRepo_tracerCarrier" stroke-linecap="round" stroke-linejoin="round"/>
<g id="SVGRepo_iconCarrier">
<polyline id="secondary" points="10 11 8 13 10 15" style="fill: none; stroke: #ffffff; stroke-linecap: round; stroke-linejoin: round; stroke-width:0.552;"/>
<polyline id="secondary-2" data-name="secondary" points="14 15 16 13 14 11" style="fill: none; stroke: #ffffff; stroke-linecap: round; stroke-linejoin: round; stroke-width:0.552;"/>
<path id="primary" d="M21,8V19a1,1,0,0,1-1,1H4a1,1,0,0,1-1-1V5A1,1,0,0,1,4,4H9.59a1,1,0,0,1,.7.29l2.42,2.42a1,1,0,0,0,.7.29H20A1,1,0,0,1,21,8Z" style="fill: none; stroke: #ffffff; stroke-linecap: round; stroke-linejoin: round; stroke-width:0.552;"/>
</g>
</svg>